<svg height="40" viewBox="0 0 189 40" width="189" xmlns="http://www.w3.org/2000/svg"><path d="m185.514179 9.02268247c-.879825-.8834876-2.073674-1.37990301-3.318582-1.37990301s-2.438757.49641541-3.318582 1.37990301l-2.131791 2.13844043-9.103433-9.11970057c-2.715407-2.71956885-7.113399-2.71956885-9.828806 0l13.991642 14.04741107-14.003731 14.0474111c1.303048 1.308074 3.070936 2.0430231 4.914403 2.0430231 1.843466 0 3.611354-.7349491 4.914402-2.0430231l15.829254-15.8462882c1.362069-1.4216808 3.276542-2.1736085 5.238806-2.057592z"/><path d="m166.980896 16.1009607-9.72403-9.75031815c-1.303049-1.30807394-3.070937-2.04302307-4.914403-2.04302307-1.843467 0-3.611355.73494913-4.914403 2.04302307l9.70791 9.73819085-9.70791 9.7381909c1.303048 1.308074 3.070936 2.0430231 4.914403 2.0430231 1.843466 0 3.611354-.7349491 4.914403-2.0430231z"/><path d="m13.5402985 24.1009108-1.7932836-2.566937c-.2579104-.355733-.350597-.404242-.7697015-.404242h-4.67059698v8.941834c0 .4042421.06447761.4527511.40298507.4527511h6.58880601c.4473134 0 .511791-.0646787.7374626-.404242l2.8208956-4.4466625h.402985v6.1323518h-17.2598507v-.4487087l2.82089552-1.5401622c.28611941-.1616968.35059702-.2587149.35059702-.6427448v-17.305602c0-.38403-.06447761-.4810481-.35059702-.6427449l-2.82089552-1.52399249v-.46487836h17.0623881v6.19703055h-.4029851l-2.6073134-4.4951715c-.1934329-.4042421-.2901493-.4042421-.7052239-.4042421h-6.62507466c-.35059701 0-.40298507.0646788-.40298507.4527511v8.844816h4.65850743c.4029851 0 .5117911-.0646787.7697015-.4042421l1.7932836-2.5345976h.3828358v7.2076357z"/><path d="m29.8974627 31.8057642v-.4042421l2.3695522-1.4431441c.350597-.2263755.4029851-.2910542.4029851-.6427448.0322388-1.0591142.0322388-5.1379164.0322388-6.6457393-.0201492-4.0747598-1.5555224-5.0530255-3.2843284-5.0530255-1.7288059 0-3.0747761 1.1561322-3.9694029 2.8296943v8.893325c-.0393209.2654834.1000252.525311.3425373.6387024l2.4179104 1.4431441v.4042421h-8.3941791v-.4042421l2.4179105-1.4431441c.2409703-.1164244.3770195-.3778618.3344776-.6427448v-9.9847786c.0350008-.2451222-.0633804-.4903005-.2579105-.6427448l-2.4944776-2.2152464v-.4042421h5.2791045v3.0843668c.9308955-1.8635558 2.5629851-3.4683967 5.2186567-3.4683967 2.4179105 0 4.130597 1.1561322 4.8640299 3.5007361 1.1847761-2.2799251 2.8208955-3.5007361 5.3153731-3.5007361 3.1352239 0 5.1864179 2.1182283 5.1864179 6.4678727 0 2.1546101-.0322388 4.6568684-.0644776 7.1631691-.039969.2688595.1033194.5315482.350597.6427448l2.4179105 1.4431441v.4042421h-8.4022388v-.4042421l2.3695522-1.4431441c.350597-.2263755.4029851-.2910542.4029851-.6427448.0322388-1.0591142.0322388-5.1379164.0322388-6.6457392 0-4.0788023-1.5353732-5.0732377-3.2238806-5.0732377-1.7932836 0-3.1392538 1.2127261-4.0661194 2.9509669.0791053.5354763.1221878 1.0756868.1289552 1.6169682 0 2.1546101-.0322388 4.6568684-.0644776 7.1631691-.0417823.2541205.081028.5069909.3062686.6306175l2.4179105 1.4431441v.4042421z"/><path d="m48.7208955 39.3529632v-.3840299l2.3977612-1.4471866c.2508576-.1076552.3968989-.3723483.3546269-.6427448v-17.5279352c.0350009-.2451222-.0633804-.4903005-.2579105-.6427448l-2.4944776-2.2152464v-.4042421h5.2791045v2.8296944c1.1847761-2.3446039 3.0102985-3.2096819 5.0252239-3.2096819 3.4576119 0 6.371194 2.7933126 6.371194 7.7695321 0 5.6593887-3.6510448 8.7033313-7.2335821 8.7033313-1.4239348.0502212-2.8041959-.4977448-3.8082089-1.5118653v5.9544854c0 .404242.0604477.5133874.402985.6750842l3.7114926 1.6695197v.3840299zm13.5040299-15.6684217c0-3.662433-1.6965672-6.1970306-4.2232836-6.1970306-1.3459702 0-2.7201493.739763-3.6470149 2.6316157v8.9256644c.6862269 1.1085539 1.8989185 1.7780743 3.1997015 1.7665378 2.43 0 4.670597-2.2152465 4.670597-7.1267873z"/><path d="m67.3831343 24.1009108c0-5.2551466 3.5502985-8.3799376 7.6808956-8.3799376 4.0298507 0 7.4874626 2.8903306 7.4874626 8.0848409 0 5.2551466-3.5502985 8.3799376-7.6808955 8.3799376-4.0338806.0080849-7.4874627-2.8822458-7.4874627-8.0848409zm11.8397015-.1293575c0-3.6907298-1.3741791-6.9650904-4.32-6.9650904-2.8491045 0-4.1910448 3.1450031-4.1910448 6.9327511 0 3.6947723 1.3741791 6.9691328 4.3844777 6.9691328 2.7846268 0 4.1265671-3.1450031 4.1265671-6.9367935z"/><path d="m87.9313433 18.5951341 3.6470149 9.7624454 3.3004478-8.2222832-.5440299-1.5401622c-.1081158-.2872093-.2725518-.5497529-.4835821-.7721023l-1.3097015-1.346126v-.404242h7.1046269v.404242l-2.2083582 1.5401622c-.2579105.1616968-.2861194.2546725-.1934328.5457268l3.4253726 9.6654273 4.001642-9.7624454c.096717-.2223332.064478-.3193512-.128955-.4487087l-2.526716-1.5401622v-.404242h6.242238v.404242l-1.793283 1.6169682c-.212127.1484212-.36939.3630236-.447314.6104055l-5.347612 13.0974423h-1.3741786l-3.7477612-9.9200998-4.0298508 9.9200998h-1.3782089l-5.1541791-13.2065877c-.1053018-.2876691-.2685443-.5504974-.4795523-.7721023l-1.3137313-1.346126v-.404242h7.1731343v.404242l-2.240597 1.5401622c-.2740298.1738241-.2740298.2708422-.1934328.5780661z"/><path d="m111.626866 23.4460387c0 5.1702557 2.68791 6.7104179 5.186418 6.7104179 1.861419-.0118487 3.629965-.8173051 4.864029-2.2152464l.318359.2587149c-1.148508 2.7286339-3.51806 4.0141236-6.238209 4.0141236-3.937164 0-7.140896-2.6639551-7.140896-8.0605864 0-5.5866251 3.268209-8.412277 7.044179-8.412277 3.360896 0 6.016567 1.8958952 6.016567 7.0338116v.6710418zm.032238-1.2127262h7.072389c-.124926-3.2339363-1.120299-5.1985527-3.26418-5.1985527-1.990746-.0282969-3.590597 1.8029196-3.816268 5.1702558z"/><path d="m129.390448 29.0528759v-7.1591267c.378806-1.1642171 1.61194-4.2485839 3.655074-4.2485839 1.499105 0 2.732239.990393 2.732239 5.0489832v.7518902h2.897463c0-.4284966 0-.8448659 0-1.2491079 0-4.3132627-1.857761-6.4234062-4.678657-6.4234062-3.030448 0-4.31597 2.8701186-4.960746 4.6972926v-4.3294323h-5.238806v.404242l2.482388 2.2031192c.193173.1516747.2914.3949284.25791.6387024v9.9443544c.039458.2677353-.103953.5289948-.350597.6387024l-2.389701 1.4391017v.3799875h9.71597v-.3799875l-3.695373-1.6654772c-.362687-.1778665-.427164-.2748846-.427164-.6912539z"/></svg>